<svg id="katman_1" data-name="katman 1" xmlns="http://www.w3.org/2000/svg" viewBox="0 0 236.37 320.76"><defs><style>.cls-1{fill:#dd5324;}</style></defs><title>265559</title><path class="cls-1" d="M330.43,248.71c0.37-3,.65-6.07.78-9.11a103.64,103.64,0,0,0-.7-11.09h0q-0.19-2.83-.52-5.64a0.42,0.42,0,0,0,0-.24c-0.27-2.33-.67-4.62-1.12-6.89a2.09,2.09,0,0,0,.8-1.95l0-.23a30.22,30.22,0,0,0-.67-3.73c-0.7-3.82-1.47-7.61-2.43-11.39a0.39,0.39,0,0,0-.08-0.13,139.91,139.91,0,0,0-5-16.26,0.38,0.38,0,0,0,.12-0.34c-0.74-2.56-1.61-5.12-2.57-7.67a0.94,0.94,0,0,0,.59-0.88,16,16,0,0,0-1.89-4c-0.4-1-.79-1.94-1.21-2.89a0.43,0.43,0,0,0,.1-0.47c-0.75-1.63-1.49-3.27-2.29-4.88a0.74,0.74,0,0,0-.22-0.25c-0.16-.3-0.32-0.6-0.47-0.91s-0.36-.75-0.54-1.12c-1.09-2.3-2.11-4.63-3.39-6.85l0-.05c-1.75-3.1-3.39-6.26-5.3-9.27a0.79,0.79,0,0,0-.2-0.21c-1.87-2.79-3.24-6.26-5.63-8.62a0.94,0.94,0,0,0-.4-0.2c-0.85-1.23-1.65-2.48-2.51-3.69a0.3,0.3,0,0,0,.07-0.34l-0.16-.23h0l0-.07c-0.48-.72-1-1.42-1.5-2.12a1.59,1.59,0,0,0-.21-0.61,27.72,27.72,0,0,0-2.44-3.38,2.87,2.87,0,0,0-2.1-1c-0.49-.65-1-1.3-1.47-2a1.75,1.75,0,0,0-.33-0.39c-0.13-.17-0.26-0.33-0.4-0.48a2.84,2.84,0,0,0-1.29-.81l-0.51-.64c0.34-.2.54-0.4,0.41-0.6a14.2,14.2,0,0,0-1.09-1.4l-0.41-.49a1.47,1.47,0,0,0-.25-0.74,20.33,20.33,0,0,0-2.65-3,2.13,2.13,0,0,0-1.14-.54c-1.59-1.82-3.23-3.56-5-5.23a11.06,11.06,0,0,0-1.3-1.22l-0.76-.7a1.25,1.25,0,0,0-.33-0.2c-1.46-1.24-2.94-2.45-4.47-3.62a2.24,2.24,0,0,0-.6-0.31,1,1,0,0,0-.33-0.38h0a1.5,1.5,0,0,0-.5-0.61l-1-.7-0.74-.49a3.26,3.26,0,0,0-1.62-.52,0.59,0.59,0,0,0-.12-0.45,4.52,4.52,0,0,0-1.27-.87l-1-.62h0c-0.5-.34-1-0.7-1.55-1l0,0a6.54,6.54,0,0,0,.75-0.25h0.17a6.23,6.23,0,0,0,1.9-.12,5.12,5.12,0,0,0,2-.84,1.26,1.26,0,0,0,.66-1.13l-0.08-.29,0-.06a0.6,0.6,0,0,0-.06-0.11l0.47,0c1.76,0,4.35-.79,4.34-1.68,0-.09,0-0.17,0-0.26a6.19,6.19,0,0,0,2-.8l0.49-.23a8.45,8.45,0,0,0,3.87-2,5,5,0,0,0,1.73-.85l0.22-.2a5.06,5.06,0,0,0,.63-0.24,7.31,7.31,0,0,0,2.43-1c0.71-.24,1.16-0.51,1-0.8l0,0a4.62,4.62,0,0,0,1.15-.17l0.14,0,0.28-.1,0.15-.05,0.18-.08a4,4,0,0,0,.48-0.26,2.78,2.78,0,0,0,.7-0.65,1.6,1.6,0,0,0,.47-1.15c0.75-.28-1.45.88-0.57,0.54a4.65,4.65,0,0,0,1.23-.68c0.43-.16,1.55.58,1.54,0.13,0,0,0,0,0,0a1.24,1.24,0,0,0,.53-0.61c0.94-.16-0.53.61,0,0,1.33-.32,3.34-0.18,3.26-0.72-0.62-4.09-4.87-7.29-4.87-7.29s-6,1.87-6.77,2.58l-0.8.74a7.47,7.47,0,0,0-3.58,1.08c-1.36.89-3.75,1.73-4.41,3.26a10.65,10.65,0,0,0-1.17.57c-1.06.26-2.39,0.7-2.33,1.19-0.71.52-11,2.81-11.69,4l-0.66.7a0.33,0.33,0,0,0-.08-0.17c0.23-.14.41-0.39,0.21-0.61l0,0,0.25-.13a1,1,0,0,0,.81-0.9v0c0.23-.18.3-0.34,0.05-0.44l-0.23-.09h0c-0.36-.41,7.24-11.62,7.71-11.8a0.55,0.55,0,0,0,.27-0.34c0.6-.26.93-0.57,0.63-0.9l-0.18-.21a0.53,0.53,0,0,0-.08-0.45,0.14,0.14,0,0,0,0-.07,21,21,0,0,0,2.17-2.61,0.23,0.23,0,0,0,0-.35,2.53,2.53,0,0,0,.29-0.37,0.26,0.26,0,0,0-.09-0.41l-0.08-.07c0.15-.12.22-0.25,0.15-0.36s-0.17-.26-0.25-0.39a0.45,0.45,0,0,0,.22-0.5l-0.07-.19a0.76,0.76,0,0,0,.5-0.6l-0.05-.16-0.14,0c0.41-.24.61-0.46,0.44-0.59-3-2.42-3.21-2.87-6.93-3.87-1-.26-4.33,2-4.4,3.44-0.11,2.12.4,0.85-1.37,2.15-0.8.59-9,13.78-9.23,14.69a0.26,0.26,0,0,0,.09.41l0.13,0.12-0.05,0c-0.51.37-.31,1.13-0.86,1.46-1.27.77-7.72-16-7.5-16.42l-0.15-.18L237.16,65l0.24-.14c0.44-.3.37-0.69-0.17-0.78l-0.24,0a1.48,1.48,0,0,0-.22-0.48,1.81,1.81,0,0,0-.14-0.16,10.9,10.9,0,0,0-.19-2.07,0.4,0.4,0,0,0-.32-0.33,1.49,1.49,0,0,0,0-.41,0.58,0.58,0,0,0-.57-0.32c0.09-.16,0-0.3-0.38-0.42a0.78,0.78,0,0,0-.23-0.13,28.74,28.74,0,0,0-1.07-5.07l-0.2-.13a0.18,0.18,0,0,0,0-.18l0.08-.19a0.26,0.26,0,0,0-.09-0.41l-0.12-.26-0.84.28c0.94-.44,1.4-0.86.09-0.88-5-.09-2.74,0-7.33,2a2.72,2.72,0,0,0-.26,1.8c0.25,0.39,1.12,1.27.83,1.78a4.7,4.7,0,0,0-.74,1.42c0.36,1.09,1.65,5.93,2,7a0.71,0.71,0,0,0,.66.33c-0.3.7,0.35,0.82-.09,1.88a0.32,0.32,0,0,0,.18.46c0.74,2,2.12,4,.8,6.09a0.26,0.26,0,0,0,.09.41l0.94,1.28s0,0,0,0a0.24,0.24,0,0,0-.06.3c0,0.23,0,.47,0,0.7a0.47,0.47,0,0,0-.14.45c0.37,1.44,1,2.67,1.31,4-1.51-.35-3-0.66-4.58-0.89a2.59,2.59,0,0,0-.65,0,4.65,4.65,0,0,0-.7-0.19l-0.09,0a3.83,3.83,0,0,0-1.32,0l-1.47-.22h0l-0.19,0h0l-0.33,0-0.12,0h0L221,81.37l-0.28,0h0l-1.86-.22a4.5,4.5,0,0,0-.76,0L217.43,81,216,81A5.46,5.46,0,0,0,212.32,82a20.08,20.08,0,0,0-2-.05h0a7,7,0,0,0-.82,0c-3.55-.1-7.11-0.14-10.66,0l-0.36.06-0.69,0a5.14,5.14,0,0,0-1,0,48.54,48.54,0,0,0-6.64.71c-1.15.09-1.15,0.56-2.3,0.7a12.07,12.07,0,0,0-2.45.25c-0.48.06-2.46,1-2.93,1-3-.54-8.2,1.1-11.56,2.15-0.77-.31-12.75,3.16-16.73,4l-0.35.05h0l-0.12,0c-5.23.74-10.56,4.21-15.5,6.59a3.44,3.44,0,0,0-1.05.31l-0.82.42a4.51,4.51,0,0,0-1.18.8,3.62,3.62,0,0,0-.47.38,2.21,2.21,0,0,0-.7.62l-2,.89-0.21.12a4.79,4.79,0,0,0-1.83.63c-0.83.46-1.59,1-2.38,1.54a2.37,2.37,0,0,0-1.13,1.29,1,1,0,0,0,0,.13l-0.08.06a5,5,0,0,0-1.61.78,37.53,37.53,0,0,0-4.94,4.12c-0.6.64-.09,1.25,0.52,1.52a1.6,1.6,0,0,0,.33.33l-0.28.24h0l-0.48.42-0.15.16a4.94,4.94,0,0,0-2.48.89,9.2,9.2,0,0,0-.84.79,3.4,3.4,0,0,0-.84.64c-0.65.7-1.31,1.39-1.94,2.11a1.19,1.19,0,0,0-.12.18,2.52,2.52,0,0,0-.45.4c-0.44.52-.88,1.07-1.32,1.62l-0.07.07h0a2.35,2.35,0,0,0-.26.31l-0.11.16a45.8,45.8,0,0,0-3.89,5.79l-0.26.4a2.28,2.28,0,0,0-.25.5c-0.49.89-.92,1.81-1.38,2.73a2.7,2.7,0,0,0-.18.48l-0.17.29s0,0.08-.06.13l-0.33.57-0.11.23,0,0a38.73,38.73,0,0,0-2.4,5,2,2,0,0,0-.17.67h0c-0.09.2-.19,0.4-0.29,0.61a0.63,0.63,0,0,0-.06.31l-0.1.23a2.29,2.29,0,0,0-.17.89c-0.19.52-.38,1-0.55,1.57,0,0,0,.08,0,0.12-0.11.3-4.4,19.78-5,23.51-0.12,0-.26.08-0.38,0.13-0.33.15-.65,3.86-0.24,3.91-0.09.68-.17,1.37-0.26,2.06-0.34.09,0.46,45.57,1.33,45.49l0.46-.06c0.11,1.11.23,2.21,0.36,3.31,0.85,7.25,1.68,14.05,3.12,21.25a0.45,0.45,0,0,0,.29.29c0.21,1.28,12.24,47.3,13.05,47.26,0.5,1.48.83,2.78,0.57,3.1l-0.06.23c3.13,6.87,5,14.5,9.21,20.84,2,3,3,6.41,4.78,9.52,1.33,2.38,3.05,4.45,4.43,6.8a0.18,0.18,0,0,0,0,.16,6.78,6.78,0,0,0,1,1.46,0.6,0.6,0,0,0,.21.14c2,2.38,4.6,4.42,6.19,7.16a0.31,0.31,0,0,0-.07.44c7.2,8.49,16.59,14.69,25.77,20.84,4.93,3.3,10.9,4.95,16.49,7.15-0.75.31-1.24,0.62-.87,0.8,6.58,3.33,13.87,4.2,21,5.48-0.15.16-.16,0.3,0.06,0.42a9.05,9.05,0,0,0,2.37.58,2.72,2.72,0,0,0,.73,0l0.94,0.1a9.48,9.48,0,0,0,1.68.32,14.49,14.49,0,0,0,4.6.47l0.27,0a45.1,45.1,0,0,0,8.39.33,4.28,4.28,0,0,0,.6-0.13,26.32,26.32,0,0,0,10.45-1l0.06,0,2.76-.08c2.47-.07,5-0.27,7.42-0.58a81.76,81.76,0,0,0,16.29-3.82c0.13,0,1.55-.59,1.31-1,0.14-.09.28-0.15,0.42-0.23a9.73,9.73,0,0,0,2.9-.93c2.77-1.51,5.79-2.38,8.51-3.91,2.16-1.21,3.35-2.91,5.07-4.33l0.05-.06c3.1-2.78,6.22-5.26,9.22-8l0.1-.07,0.25-.25h0l0,0,0.2-.2c0.57-.54,1.13-1.09,1.69-1.66a1.93,1.93,0,0,0-1-.14l0.06-.06a2.28,2.28,0,0,0,.84-0.49c0.71-.84,1.4-1.69,2.1-2.54a4,4,0,0,0,2.33-1c3.2-4.82,6.6-9.48,9.75-14.33a1,1,0,0,0,.18-0.2,117.78,117.78,0,0,0,9.54-16.95,0.16,0.16,0,0,0-.05-0.18l0.14-.12a17,17,0,0,0,1.07-1.46,1.56,1.56,0,0,0,.87-0.67,94.47,94.47,0,0,1,5.13-13.53,0.9,0.9,0,0,0,.26-0.32,139.69,139.69,0,0,0,6-18.82c1.53-6.08,4-12.59,3.78-18.84a0.37,0.37,0,0,0-.23-0.33,80.51,80.51,0,0,0,1.12-8.51A0.15,0.15,0,0,0,330.43,248.71ZM310.7,291.86a0.91,0.91,0,0,0-.3.39c-3.72,12.36-11.16,23.12-17.63,34.26-1.87,1.27-3,3.72-4.22,5.39C287,334,285.47,336,284,338.13c-0.75,1.1-3.12,3.89-.28,3.72-1.08.06-4.16,0.2-4.53,1.49a2.61,2.61,0,0,1-.66,1.07,1.71,1.71,0,0,0-.43.27c-2.5,2.29-5.2,4.25-7.87,6.35-0.17.14-.21,0.24-0.15,0.33-1.21.86-2.43,1.71-3.66,2.54a0.73,0.73,0,0,0-.34.41l-0.22.14a4.69,4.69,0,0,0-1.86,1l-0.2.14c-0.66.39-1.32,0.78-2,1.14a7.45,7.45,0,0,0-1.42.49,8.58,8.58,0,0,0-2,.38c-2,.91-4.07,1.59-6,2.58h0c-2.53.6-4.93,1.55-7.48,2.09l-0.57.14-0.84.11c-1.08.1-2.18,0.22-3.25,0.38l-0.24,0a28.62,28.62,0,0,0-8.67.62,7.22,7.22,0,0,0-.81.16l-0.53,0a2.85,2.85,0,0,0-.47-0.08c-2-.17-4-0.12-6-0.11a9.73,9.73,0,0,0-2,.45,91,91,0,0,1-12.13-1.3c-1.73-.24-3.49-0.53-5.24-0.86,0.19-.15.18-0.28-0.13-0.36-5-1.17-9.79-2.81-14.72-4.07a2,2,0,0,0-.4,0l-1-.34c0.11-.08.14-0.13,0.07-0.16-2.11-.86-4.19-1.77-6.27-2.72a3.51,3.51,0,0,0-1.83-.06c-1.94-1-3.86-2-5.78-3.09,0.06-.05.08-0.1,0-0.12-0.6-.31-1.2-0.63-1.79-1a1.19,1.19,0,0,0-.21-0.08c-1-.5-1.8-1.19-2.78-1.67a1,1,0,0,0-.23-0.07c-2.07-1.29-4.14-2.57-6.12-4,0-.07.06-0.12,0-0.17-0.79-.55-1.57-1.12-2.34-1.69a1.24,1.24,0,0,0-.47-0.18l-0.28-.2a1.59,1.59,0,0,0-.51-0.55l-0.63-.49,0.08,0.06h0l-0.13-.1-0.51-.43c-0.35-.29-0.7-0.57-1.06-0.85l-0.21-.17-0.08-.05-0.31-.25a2,2,0,0,0-.88-0.31c-1.2-.94-2.35-1.95-2.29-2.26l-0.15-.19a34.62,34.62,0,0,1-4.39-3.69,0.4,0.4,0,0,0,.07-0.3,0.45,0.45,0,0,0-.23-0.27c-3.71-4.12-7.6-8.14-11-12.58a0.15,0.15,0,0,0,0-.17l-0.12-.19h0c-0.5-.72-1-1.43-1.46-2.15,0.22-.13.34-0.24,0.29-0.31-0.77-1.09-1.48-2.21-2.19-3.34a0.5,0.5,0,0,0,.06-0.25,2.85,2.85,0,0,0-.62-1.2h0a50.87,50.87,0,0,1-4.72-8.78,0.28,0.28,0,0,0,.11-0.29l-0.92-2.14a0.57,0.57,0,0,0-.09-0.12,62.55,62.55,0,0,1-2.75-6.39,0.17,0.17,0,0,0,0,0l-0.1-.24h0l-0.2-.47a0.5,0.5,0,0,0,.34-0.48l-0.06-.13a0.43,0.43,0,0,0,.15-0.36,5.12,5.12,0,0,0-.35-1,0.18,0.18,0,0,0,0-.11c-0.19-.47-0.37-0.94-0.55-1.41a0.24,0.24,0,0,0,0-.21c-0.37-1-.61-2.1-1-3.15-0.5-1.27-1.25-2.85-1.9-4.48-0.16-.48-0.31-1-0.47-1.43a0.23,0.23,0,0,0,0-.14l-0.65-2c0-.11-0.05-0.22-0.07-0.33a0.41,0.41,0,0,0,.21-0.4l-1.05-3.21c0-.14-0.1-0.3-0.19-0.58a0.48,0.48,0,0,0-.14-0.21c-0.68-2.2-1.34-4.41-2-6.62a0.5,0.5,0,0,0-.25-0.27,1.18,1.18,0,0,0,0-.38,1.14,1.14,0,0,0,0-.14s0,0,0-.06q-0.2-.85-0.45-1.68a1.58,1.58,0,0,0-.45-0.7l-0.12-.95a0.56,0.56,0,0,0,0-.23l-0.2-.54a1.41,1.41,0,0,0-.58-0.71,2.54,2.54,0,0,0-.2-0.6h0a1.82,1.82,0,0,0,.66-0.58c0.4-.7-0.37-2.45-0.6-3.18a10.35,10.35,0,0,0-.56-2.16c-0.31-1.26-.6-2.52-0.93-3.77a0.62,0.62,0,0,0-.28-0.34l-0.23-1.14a1.4,1.4,0,0,0-.08-0.25,1.57,1.57,0,0,0-.15-0.34l-0.06-.28-0.44-1.92q-0.42-1.82-.81-3.64a1.6,1.6,0,0,0-.64-1l-0.05-.32a1.17,1.17,0,0,0-.19-0.45,0.33,0.33,0,0,0,0-.21c-1.47-7.14-2.74-14.29-3.63-21.52a0.3,0.3,0,0,0-.11-0.18c-0.31-2.76-4.24-39.56-5.21-39.51q0.21-3.55.59-7.12c0.38-3.44.88-7,1.51-10.67a18.74,18.74,0,0,0,.89-4.68c2.35-11.3,6.2-22.75,12.5-31.79,7.86-11.28,17.57-19.57,30.94-24.45,9.55-3.49,17.38-5,27.27-7.33,7.67-1.79,11.12-2.08,19.8-2.88,0.11,0,2.83-.11,2.86-0.85a156.16,156.16,0,0,1,19.79,1.65l0.51,0.09a1.57,1.57,0,0,0,1,.51c0.67,0.14,1.33.26,2,.41a3.24,3.24,0,0,0,.71.09l0.47,0a39.68,39.68,0,0,0,7.81,1.76c1.46,0.35,2.9.78,4.33,1.27L234.82,96l0.28,0.11h0l1.6,0.59a2.28,2.28,0,0,0,1.05.79c3.9,1.65,7.79,3.19,11.55,5.14l0.09,0c2.38,1.29,4.73,2.65,7,4.17a1.25,1.25,0,0,0,.45.5l0.07,0a1.9,1.9,0,0,0,.61.24l0.69,0.48a1.58,1.58,0,0,0,.79.23,1.49,1.49,0,0,0,.32.25L260,109a0.35,0.35,0,0,0,.07.43c1.42,1.6,3.6,2.72,5.21,4.18l0,0a113.82,113.82,0,0,1,8.66,8.76,2.15,2.15,0,0,0,1.58.36c2,2.45,3.86,5,5.68,7.57a1.26,1.26,0,0,0,.18,1.08c0.4,0.63.81,1.25,1.21,1.87a1,1,0,0,0,.14,1.14l2,2.91a2,2,0,0,0,1.13.75c3.25,4.76,6.54,9.5,9.21,14.36a1.6,1.6,0,0,0,.76.66q2.25,3.86,4.35,7.79L300,161a0.7,0.7,0,0,0-.3.7,1.37,1.37,0,0,0,.21.5l0.19,0.37,0,0,0.38,0.76c0.33,0.64.62,1.77,1.34,2.09a3.12,3.12,0,0,0,.75.21c0.2,0.4.41,0.8,0.62,1.21,7.44,15,14.5,32.07,17.34,49.09a0.52,0.52,0,0,0-.27.49l0.32,1.67c0.14,0.76.33,1.52,0.43,2.28h0l0,0a1.84,1.84,0,0,0,0,1.07,0.42,0.42,0,0,0,.34.29c0.19,1.74.34,3.47,0.43,5.21a0.55,0.55,0,0,0-.2.43,20.82,20.82,0,0,0,.21,3.25,0.4,0.4,0,0,0,0,.23,13.31,13.31,0,0,1,.12,1.44,0.43,0.43,0,0,0-.06.22c0,0.85,0,1.7,0,2.54a0.25,0.25,0,0,0,0,0A25.52,25.52,0,0,0,322,238a0.3,0.3,0,0,0,.11.18v0a0.3,0.3,0,0,0,.2.23q0,1.08,0,2.16a0.53,0.53,0,0,0-.13.3c0,1.17,0,2.34-.08,3.5a0.58,0.58,0,0,0-.18.36c0,1.53,0,3-.18,4.56a0.14,0.14,0,0,0,0,.06,80.53,80.53,0,0,1-2.61,14.82,0.2,0.2,0,0,0,.07.2c-0.67,1.28-.71,3.19-1.08,4.41,0,0,.07.1,0.22,0.13C316.2,276.69,314,284.46,310.7,291.86Zm-65.19,70,0.47-.1h0ZM234.75,98.64h0C234.59,98.59,234.61,98.59,234.75,98.64ZM234.33,61l0.2-.08,0,0.06ZM172.42,91.18a5.11,5.11,0,0,0-.7.07h0l0.1,0h-0.15A6.1,6.1,0,0,1,172.42,91.18Zm90.77,5.26h0ZM235,60.19l0,0C234.59,60.19,234.58,60.18,235,60.19Z" transform="translate(-94.84 -52.89)"/><path class="cls-1" d="M220.72,81.34h0C220.92,81.31,220.9,81.31,220.72,81.34Z" transform="translate(-94.84 -52.89)"/><path class="cls-1" d="M222.07,81.52l0.17,0C222.46,81.53,222.42,81.49,222.07,81.52Z" transform="translate(-94.84 -52.89)"/><path class="cls-1" d="M132.85,149.78a0.5,0.5,0,0,0,.38.31,2.53,2.53,0,0,1,.63.35,1.14,1.14,0,0,0,.86.34l0,0a0.92,0.92,0,0,0,.44.35,0.85,0.85,0,0,0,.65.26,3.9,3.9,0,0,0,2.68-.06,4.3,4.3,0,0,0,2.25-.22h0l0.14,0,0.17,0a2.33,2.33,0,0,0,1.56-1.11,12.12,12.12,0,0,0,1.86-1.09,1.27,1.27,0,0,0,.54-0.58,0.72,0.72,0,0,0,.45-0.61l0-.09a0.43,0.43,0,0,0,.15-0.5,1,1,0,0,0-.05-0.28,0.49,0.49,0,0,0,.17-0.44l0-.17a1.34,1.34,0,0,0,.29-0.79c0.27-.21.41-0.43,0.11-0.6l0,0a0.43,0.43,0,0,0,0-.16,0.17,0.17,0,0,0,0,0l0.08-.05a0.39,0.39,0,0,0,.1-0.62,0.12,0.12,0,0,0-.1,0,0.49,0.49,0,0,0,.19-0.41,0.46,0.46,0,0,1,0-.08,1.27,1.27,0,0,0,.22-0.31c0.14-.29-0.12-0.44-0.34-0.52a4.37,4.37,0,0,0-.52-0.15,0.22,0.22,0,0,0-.09-0.19c0.34-.36.14-0.78-0.54-0.81a0.33,0.33,0,0,0,0-.07,0.68,0.68,0,0,0-.13-0.14s0-.08,0-0.12a0.41,0.41,0,0,0-.27-0.5,2,2,0,0,0,0-.22c0-.38-0.6-0.45-1.17-0.42a1.28,1.28,0,0,0-.87-0.33,1.48,1.48,0,0,0-.71-0.61l0-.14c0-.32-0.67-0.43-1.53-0.37a1.56,1.56,0,0,0-1.07-.78,3,3,0,0,0-1.37,0,3,3,0,0,0-1.19.56,3.18,3.18,0,0,0-1.58.63,3.27,3.27,0,0,0-1.41.24c-0.81.34-1.71,1.27-1.15,2.2l-0.06.1c0,0.06-.05.13-0.07,0.19a1.92,1.92,0,0,0-.48.69l0,0a2.52,2.52,0,0,0-1.28.71,0.45,0.45,0,0,0-.15.19,0.39,0.39,0,0,0-.09.63c0.16,0.17.33,0.33,0.51,0.49h0l0,0.05a0.21,0.21,0,0,0,0,.28c-0.16.2-.2,0.4,0.11,0.54,0,0.07,0,.14,0,0.21-0.39.25-.57,0.49-0.2,0.66h0a0.28,0.28,0,0,0,0,.05,0.33,0.33,0,0,0-.14.4,2.39,2.39,0,0,1,.39,1.37,0.22,0.22,0,0,0,0,.16,0.34,0.34,0,0,0,.22.28C131.77,148.82,132.83,149.37,132.85,149.78Zm12.16-1.7a0.38,0.38,0,0,0-.08-0.08c-0.14-.09-0.09-0.07.13,0Z" transform="translate(-94.84 -52.89)"/><path class="cls-1" d="M153.36,139.57c-0.09.43,0.29,0.63,0.74,0.72l0.11,0.13a0.81,0.81,0,0,0,.28.7,0.34,0.34,0,0,0,0,.18l0,0.06a0.79,0.79,0,0,0,.09.12l-0.07.11a0.33,0.33,0,0,0,0,.28,0.59,0.59,0,0,0-.13.49c0,0.22.15,0.35,0.45,0.42a0.77,0.77,0,0,0,.69.43l0.5,0a1,1,0,0,0,.51.19c-0.15.46,0.2,0.65,0.75,0.67a1.68,1.68,0,0,0,1.08.34h0.6a2.73,2.73,0,0,0,1.39.44,4.68,4.68,0,0,0,2.59-.7,4.38,4.38,0,0,0,1.72-.67l0.22-.17a2.54,2.54,0,0,0,.89-0.54,2.7,2.7,0,0,0,.73-0.39,1.94,1.94,0,0,0,.67-0.6c0.37-.27.56-0.59,0.26-0.9a0.36,0.36,0,0,0,0,0c0-.1,0-0.17,0-0.23l0.11-.11a1.48,1.48,0,0,0,.43-0.63,0.8,0.8,0,0,0,.55-0.85,1.45,1.45,0,0,0-.23-0.42,0.67,0.67,0,0,0,0-.09,0.36,0.36,0,0,0,0-.27,4.46,4.46,0,0,0,.08-2.29,0.53,0.53,0,0,0-.23-0.4c0-.07,0-0.14,0-0.23a0.61,0.61,0,0,0-.51-0.44,0.64,0.64,0,0,0-.49-0.39,0.53,0.53,0,0,0-.28-0.33,0.37,0.37,0,0,0-.29-0.33,4.87,4.87,0,0,1-.38-0.31,0.65,0.65,0,0,0-.62-0.56,0.39,0.39,0,0,0,0-.06,0.75,0.75,0,0,0-.73-0.56,0.84,0.84,0,0,0-.17-0.11,0.92,0.92,0,0,0-.15-0.32c-0.36-.54-1.38-0.48-2.27-0.24a6.55,6.55,0,0,0-1.6.3,4,4,0,0,0-1.43.06,3.47,3.47,0,0,0-1.43.62,1.56,1.56,0,0,0-.4.46,3.4,3.4,0,0,0-1.19.72L156,134c-0.82.27-1.41,0.69-1.15,1.12l-0.08.05-0.2.14,0,0h0l-0.15.13-0.06.06-0.11.13a0.81,0.81,0,0,0-.09.16l0,0.06h0a0.65,0.65,0,0,0,0,.11c-0.37.22-1,.73-0.76,1.1a0.48,0.48,0,0,0,.33.47h0l0,0,0,0.09a0.48,0.48,0,0,0,0,.33,2.22,2.22,0,0,0-.2.29,0.42,0.42,0,0,0,0,.38,1.08,1.08,0,0,0-.23.35A0.43,0.43,0,0,0,153.36,139.57Z" transform="translate(-94.84 -52.89)"/><path class="cls-1" d="M177.22,162c-0.1-.07-1.71-0.42-1.85-0.44l-0.32-.06a2.5,2.5,0,0,0-.51,0l-0.09,0a2.85,2.85,0,0,0-1.08,0,5.38,5.38,0,0,0-2.11.43l-0.71.12c-0.79-.17-2,1.14-2.54,1.29l-0.49.13a6,6,0,0,0-1.79.83,3.77,3.77,0,0,0-1.6,1,1.53,1.53,0,0,0-.47.58,7.36,7.36,0,0,0-2.66.93,5.65,5.65,0,0,0-.74.29,4.12,4.12,0,0,0-.46.27,9,9,0,0,0-1.22.38c-1.41.17-3,.87-3.37,1.67a6.8,6.8,0,0,0-2.61.9,4.9,4.9,0,0,0-2.2.25,4.66,4.66,0,0,0-.55,0l-0.29,0a1.32,1.32,0,0,0-.57-0.29l-0.12-.07a2.46,2.46,0,0,0-2-.28c-0.12-.64-0.84-0.76-1.69-0.66a1.38,1.38,0,0,0-.81-0.23c0.11,0,.7.11-0.29-0.5a3.1,3.1,0,0,0-1.69-.3l-0.06,0c0.08-.31-0.2-0.53-1.11-0.55l-0.26.09c-0.12-.19-0.27.25-0.45,0.13-0.06-.37-0.63-0.39-1.27-0.48a18.14,18.14,0,0,0-2-.68c-0.87-.81-4.36-1-4.95-0.6-1.92,1.27-1.74.66-2.92,2.49a3.41,3.41,0,0,0,.35,2.36c2.76,2.2,4.91,6,8.5,6.28,0.76,0.66,1.66.86,2.61,1.56a2.42,2.42,0,0,0,1.5.34c3,0.62,6.2.32,9.17,1.05,2,0.5,2.94-.28,4.52-0.71a7.52,7.52,0,0,0,1.72-.32,10.28,10.28,0,0,0,2.56-.57c3.17-1.21,6-3.06,9-4.53,2.41-1.19,5.44-3.21,6.67-5.46a0.74,0.74,0,0,0,0-.91l0.09-.11a6.28,6.28,0,0,0,.94-1.71,8,8,0,0,0,1.25-.71,5.24,5.24,0,0,0,.47-0.87C179,163.38,177.67,162.06,177.22,162Zm0.17,3.92h0Z" transform="translate(-94.84 -52.89)"/><path class="cls-1" d="M197.14,95" transform="translate(-94.84 -52.89)"/></svg>